<?xml version="1.0" encoding="UTF-8"?>
<svg version="1.1" xmlns="http://www.w3.org/2000/svg" width="1024" height="1024">
<path d="M0 0 C2.58231808 2.3448251 4.18104385 4.80102235 5.890625 7.83203125 C6.43162842 8.78827393 6.97263184 9.7445166 7.5300293 10.72973633 C8.09761963 11.74704834 8.66520996 12.76436035 9.25 13.8125 C9.83628174 14.85623779 10.42256348 15.89997559 11.02661133 16.9753418 C14.62148459 23.41397292 18.02670735 29.89541912 21.25 36.52734375 C23.82750581 41.64208184 26.63400688 46.62401633 29.44995117 51.6105957 C32.11455968 56.3421585 34.6066018 61.12517056 37 66 C37.66 66 38.32 66 39 66 C39.10183594 66.70020264 39.20367188 67.40040527 39.30859375 68.12182617 C40.11068409 71.46075381 41.42723078 74.03098099 43.0625 77.05078125 C43.36982559 77.62221863 43.67715118 78.19365601 43.99378967 78.78240967 C44.98940909 80.62934586 45.99443194 82.47096446 47 84.3125 C47.6884945 85.58432414 48.37656259 86.85637921 49.06420898 88.12866211 C53.3530058 96.04797885 57.71021816 103.92787841 62.16015625 111.7578125 C64.83555869 116.47242827 67.43301657 121.22565883 70 126 C70.3722168 126.68868164 70.74443359 127.37736328 71.12792969 128.08691406 C72.38165454 130.40961472 73.62897338 132.73566174 74.875 135.0625 C75.28105469 135.81394287 75.68710937 136.56538574 76.10546875 137.33959961 C79 142.77119745 79 142.77119745 79 145 C79.66 145.33 80.32 145.66 81 146 C82.11175491 148.04449843 83.12842172 150.08684856 84.125 152.1875 C88.14472078 160.4343235 92.42464389 168.53592889 96.75 176.625 C97.09835907 177.27683258 97.44671814 177.92866516 97.80563354 178.60025024 C103.1704905 188.63279394 108.59112987 198.63412534 114.0546875 208.61328125 C117.32472505 214.58691933 120.56968459 220.57405141 123.8125 226.5625 C124.63427734 228.0784375 124.63427734 228.0784375 125.47265625 229.625 C127.76340909 233.85365134 130.05043579 238.0837896 132.3046875 242.33203125 C132.63106201 242.94554443 132.95743652 243.55905762 133.29370117 244.19116211 C134.1091159 245.7273313 134.92003312 247.26588567 135.73046875 248.8046875 C136.93712431 251.10921575 136.93712431 251.10921575 139 253 C140.14549136 255.19477347 141.23899856 257.39533558 142.3125 259.625 C150.50275663 276.29245148 159.61217987 292.50385859 168.86206055 308.60180664 C169.37551025 309.50020264 169.88895996 310.39859863 170.41796875 311.32421875 C170.86938232 312.10885498 171.3207959 312.89349121 171.78588867 313.7019043 C173 316 173 316 174.03637695 318.72973633 C174.77795569 321.15922683 174.77795569 321.15922683 177 322 C177.9338193 323.69812363 178.79648541 325.43558507 179.625 327.1875 C181.83203414 331.73804627 184.17046932 336.14760962 186.69921875 340.53125 C187.40758113 341.76259722 188.11591356 342.99396167 188.82421875 344.2253418 C189.18443115 344.84992279 189.54464355 345.47450378 189.91577148 346.11801147 C191.65283042 349.13317381 193.37878049 352.15467209 195.10546875 355.17578125 C195.78576789 356.36525691 196.46610644 357.55471003 197.14648438 358.74414062 C197.48252686 359.33171143 197.81856934 359.91928223 198.16479492 360.5246582 C198.85178078 361.72561247 199.5389581 362.92645724 200.22631836 364.12719727 C204.19502275 371.06052103 208.14654089 378.00175071 212 385 C212.66 385 213.32 385 214 385 C214.16653076 386.07894531 214.16653076 386.07894531 214.33642578 387.1796875 C215.04594087 390.19525716 216.11850386 392.41939396 217.6171875 395.125 C218.40416016 396.55585937 218.40416016 396.55585937 219.20703125 398.015625 C219.75746094 399.00046875 220.30789063 399.9853125 220.875 401 C221.41769531 401.98484375 221.96039062 402.9696875 222.51953125 403.984375 C224.00045907 406.66380431 225.48650994 409.33882747 227 412 C227.51320801 412.91007812 228.02641602 413.82015625 228.55517578 414.7578125 C229.80423655 417.11445646 229.80423655 417.11445646 232 418 C231.67 418.66 231.34 419.32 231 420 C229.02 419.67 227.04 419.34 225 419 C225 418.34 225 417.68 225 417 C216.67514847 416.20149383 208.34325541 415.57245694 200 415 C200 414.34 200 413.68 200 413 C198.82280396 412.94175049 198.82280396 412.94175049 197.62182617 412.88232422 C185.97109486 412.21092889 174.41078298 410.87678031 162.82122803 409.53164673 C159.24733081 409.11744717 155.67284703 408.7087014 152.09814453 408.30151367 C134.94889289 406.34720606 134.94889289 406.34720606 127.50048828 405.47412109 C112.48272659 403.71657523 97.45526737 402.44522417 82.375 401.375 C81.06604767 401.28093369 81.06604767 401.28093369 79.73065186 401.18496704 C52.36444777 399.23947014 25.06223777 398.81171908 -2.36181641 398.81469727 C-6.17892244 398.81477801 -9.99590712 398.80790106 -13.81298828 398.79418945 C-36.21737948 398.71476801 -58.51638279 399.03327335 -80.88504028 400.38594055 C-81.68947193 400.43321352 -82.49390358 400.48048649 -83.32271194 400.52919197 C-84.82223434 400.61850065 -86.32146701 400.71287109 -87.82029343 400.81318474 C-92.7779733 401.11101335 -92.7779733 401.11101335 -95 400 C-94.67 398.68 -94.34 397.36 -94 396 C-93.34 396.66 -92.68 397.32 -92 398 C-91.19820313 397.57589844 -90.39640625 397.15179687 -89.5703125 396.71484375 C-82.61210539 393.12529246 -75.60824026 389.91122142 -68.3125 387.0625 C-67.53471191 386.75626709 -66.75692383 386.45003418 -65.95556641 386.13452148 C-62.84674618 384.94364001 -60.3579238 384 -57 384 C-57 383.01 -57 382.02 -57 381 C-56.01 381.33 -55.02 381.66 -54 382 C-51.46075988 381.19521454 -49.0659533 380.31869911 -46.60546875 379.31640625 C-45.86963058 379.02548599 -45.13379242 378.73456573 -44.37565613 378.43482971 C-42.7963773 377.80955364 -41.21871153 377.18019112 -39.64251709 376.54718018 C-36.36382177 375.23213178 -33.07573012 373.94145491 -29.78796387 372.64929199 C-27.35204976 371.69146523 -24.9173211 370.73068302 -22.48291016 369.76904297 C-16.79198992 367.52260733 -11.09886773 365.28641383 -5.375 363.125 C-4.5502417 362.79830322 -3.7254834 362.47160645 -2.87573242 362.13500977 C6.02483945 358.81588629 14.86984179 359.92400329 24.13671875 361.03125 C25.10659225 361.14277908 26.07646576 361.25430817 27.07572937 361.36921692 C30.28040976 361.73994341 33.48395406 362.11960371 36.6875 362.5 C38.94936863 362.76467712 41.21125044 363.02924166 43.47314453 363.29370117 C62.45361626 365.5267993 81.41598542 367.90504957 100.375 370.3125 C101.07229092 370.40099213 101.76958183 370.48948425 102.48800278 370.58065796 C107.14600525 371.17208369 111.80358333 371.76676757 116.4609375 372.36328125 C117.6430632 372.51408646 118.8251889 372.66489166 120.0431366 372.82026672 C121.6853997 373.03165535 121.6853997 373.03165535 123.36083984 373.24731445 C124.30986176 373.36911575 125.25888367 373.49091705 126.23666382 373.6164093 C129.1681524 374.02334197 132.08290566 374.50092822 135 375 C134.525625 374.0925 134.05125 373.185 133.5625 372.25 C132.31791474 369.66126265 131.67273054 367.72037634 131 365 C130.48159494 363.68052003 129.93205684 362.37299317 129.35766602 361.0769043 C129.02384415 360.31899094 128.69002228 359.56107758 128.34608459 358.78019714 C127.98566574 357.96972427 127.62524689 357.1592514 127.25390625 356.32421875 C126.49147676 354.59182315 125.72910891 352.85940042 124.96679688 351.12695312 C123.76570488 348.40763375 122.56315168 345.68897114 121.35913086 342.97094727 C120.19521929 340.3403781 119.03683118 337.70742743 117.87890625 335.07421875 C117.52051163 334.26981857 117.162117 333.4654184 116.79286194 332.63664246 C115.24902237 329.12095334 113.85694414 325.71373342 112.88256836 321.99536133 C112.44569702 320.51265747 112.44569702 320.51265747 112 319 C111.34 318.67 110.68 318.34 110 318 C109.29056297 316.01476864 108.63329186 314.01081721 108 312 C106.97902182 309.5295502 105.94368335 307.07427907 104.875 304.625 C104.45927734 303.66400391 104.45927734 303.66400391 104.03515625 302.68359375 C103.35899615 301.12143075 102.67981293 299.56057685 102 298 C101.34 298 100.68 298 100 298 C99.31292445 295.50935112 99 293.62113708 99 291 C98.50564816 289.60217755 97.94935115 288.2257143 97.35546875 286.8671875 C96.83436523 285.65675781 96.83436523 285.65675781 96.30273438 284.421875 C95.75069336 283.16117188 95.75069336 283.16117188 95.1875 281.875 C92.72159508 276.22080934 90.45689226 270.63984573 88.7043457 264.71923828 C88.13567948 262.79362234 88.13567948 262.79362234 86 262 C85.25390625 260.25 85.25390625 260.25 84.5625 258 C84.3046875 257.195625 84.046875 256.39125 83.78125 255.5625 C83.26215592 253.85987141 82.76196668 252.15135946 82.28125 250.4375 C82.0440625 249.633125 81.806875 248.82875 81.5625 248 C81.35753906 247.2575 81.15257812 246.515 80.94140625 245.75 C80.13596184 243.7845269 80.13596184 243.7845269 77.90234375 243.25 C77.27457031 243.1675 76.64679688 243.085 76 243 C76.66 242.34 77.32 241.68 78 241 C77.55090939 239.51800098 77.09043436 238.03944764 76.625 236.5625 C76.36976563 235.73878906 76.11453125 234.91507813 75.8515625 234.06640625 C75.19117773 231.82201984 75.19117773 231.82201984 73 231 C72.31405329 228.99052791 71.63855871 226.97717775 71 224.95214844 C69.8147365 221.45307465 68.44212433 218.04517502 67.03125 214.6328125 C66.75262115 213.95869827 66.47399231 213.28458405 66.18692017 212.59004211 C65.59790079 211.16915372 65.00783721 209.74869781 64.41680908 208.3286438 C63.48603928 206.091444 62.55955533 203.85251339 61.63427734 201.61303711 C59.46688831 196.36815739 57.29545242 191.12495695 55.12219238 185.88250732 C53.28307578 181.44524643 51.45235 177.00461952 49.625 172.5625 C49.15513672 171.43279785 48.68527344 170.3030957 48.20117188 169.13916016 C47.77642578 168.10452637 47.35167969 167.06989258 46.9140625 166.00390625 C46.5423291 165.10486572 46.1705957 164.2058252 45.78759766 163.27954102 C45 161 45 161 45 158 C44.01 158 43.02 158 42 158 C42.33 157.01 42.66 156.02 43 155 C42.19669306 152.56051419 41.32681755 150.27416772 40.32421875 147.91796875 C40.03899857 147.2261702 39.75377838 146.53437164 39.45991516 145.8216095 C38.5446741 143.60642512 37.61659854 141.39690354 36.6875 139.1875 C35.77170748 136.98781409 34.8586108 134.78703855 33.94721985 132.58552551 C33.3793769 131.21629284 32.80856006 129.84828842 32.23429871 128.48173523 C30.65474127 124.69981584 29.24557775 120.90461712 28 117 C27.52506104 117.97493408 27.05012207 118.94986816 26.56079102 119.9543457 C24.66821615 123.83886691 22.77491895 127.72303573 20.88137817 131.60708618 C19.99965344 133.41576747 19.11804193 135.22450394 18.23654175 137.03329468 C12.6981865 148.39649119 7.14370755 159.75153404 1.5625 171.09375 C-0.60469715 175.49973931 -2.77136335 179.90598921 -4.9375 184.3125 C-5.47340759 185.40257355 -6.00931519 186.49264709 -6.5614624 187.61575317 C-13.23509105 201.20020678 -19.79340735 214.82090209 -26.08764648 228.58520508 C-29.10754608 235.16693075 -32.35766303 241.51393279 -35.84765625 247.859375 C-40.83694236 257.2194608 -45.03150231 267.02837816 -49.46191406 276.6640625 C-54.4808354 287.54954522 -59.61836256 298.37249981 -65.04541016 309.06079102 C-66.80490874 312.54245484 -68.49218818 316.04380706 -70.1015625 319.59765625 C-70.45081787 320.36384277 -70.80007324 321.1300293 -71.15991211 321.91943359 C-71.82411126 323.38543742 -72.47923363 324.85560275 -73.12329102 326.33056641 C-73.42678467 326.99878418 -73.73027832 327.66700195 -74.04296875 328.35546875 C-74.30102295 328.93965576 -74.55907715 329.52384277 -74.82495117 330.12573242 C-77.8662403 334.97675603 -81.67826662 337.64895695 -86.875 339.83203125 C-88.01557861 340.31679932 -89.15615723 340.80156738 -90.33129883 341.30102539 C-91.54197021 341.79981201 -92.7526416 342.29859863 -94 342.8125 C-95.25638739 343.33973746 -96.51248856 343.86765745 -97.76831055 344.39624023 C-107.0024371 348.26219008 -116.32001763 351.90133886 -125.70703125 355.37890625 C-129.52905678 356.79953471 -133.26698262 358.36026339 -137 360 C-132.21357639 361.55793625 -128.58961015 360.19732432 -124.04296875 358.5703125 C-123.27153534 358.30473038 -122.50010193 358.03914825 -121.70529175 357.76551819 C-119.19497653 356.89741635 -116.69130863 356.01167564 -114.1875 355.125 C-112.45330219 354.52049793 -110.71884415 353.91674192 -108.98413086 353.3137207 C-98.67549167 349.71596412 -88.41818764 345.99384376 -78.21679688 342.10180664 C-71.74593495 339.6344221 -65.23721735 337.3117562 -58.6875 335.0625 C-49.97901585 332.06853254 -41.32286142 328.94887101 -32.6875 325.75 C-31.57270264 325.33758057 -30.45790527 324.92516113 -29.30932617 324.50024414 C-24.63131475 322.76015522 -19.97326586 320.99161255 -15.34790039 319.1159668 C-9.7397693 316.86622201 -4.06127023 314.84548131 1.640625 312.84765625 C3.26759308 312.27464027 3.26759308 312.27464027 4.9274292 311.69004822 C8.36758844 310.47887146 11.8087545 309.27058654 15.25 308.0625 C18.66938863 306.85993684 22.08856617 305.65677527 25.50769043 304.45346069 C27.70258616 303.68118033 29.89765166 302.90938229 32.09289551 302.13809204 C38.89110185 299.74838395 45.67905609 297.33278046 52.45214844 294.87280273 C54.62921184 294.12701875 56.76696153 293.54198299 59 293 C60.40066567 292.54454932 61.79637892 292.07366375 63.1875 291.58984375 C63.96867187 291.32236328 64.74984375 291.05488281 65.5546875 290.77929688 C67.18610182 290.2176838 68.81631582 289.65257187 70.4453125 289.08398438 C71.22648437 288.81779297 72.00765625 288.55160156 72.8125 288.27734375 C73.52019531 288.03234131 74.22789062 287.78733887 74.95703125 287.53491211 C77 287 77 287 81 287 C81.33 286.34 81.66 285.68 82 285 C84.5625 284.375 84.5625 284.375 87 284 C87 286.31 87 288.62 87 291 C86.34 290.67 85.68 290.34 85 290 C81.75420179 290 79.69517572 292.42380642 77.25 294.375 C72.11352032 298.39992287 66.8996436 302.27313883 61.57397461 306.04321289 C58.29573403 308.36427687 55.02900657 310.69888769 51.78125 313.0625 C43.42695305 319.1417099 35.00911751 325.10266292 26.46264648 330.90893555 C21.05865832 334.58202307 15.69111023 338.30343562 10.33886719 342.05151367 C-5.02038275 352.79666274 -20.06205082 362.92728864 -37 371 C-38.79368741 371.91270625 -40.58565552 372.82880862 -42.375 373.75 C-49.98519999 377.54872629 -57.9058386 380.41925289 -66 383 C-65.67 383.66 -65.34 384.32 -65 385 C-66.65614657 385.38218767 -68.32457024 385.71395102 -70 386 C-70.33 385.67 -70.66 385.34 -71 385 C-71.86874756 385.30703857 -72.73749512 385.61407715 -73.63256836 385.93041992 C-117.54790063 401.33042943 -117.54790063 401.33042943 -134 401 C-134.33 401.66 -134.66 402.32 -135 403 C-137.16992187 403.35473633 -137.16992187 403.35473633 -139.96875 403.51953125 C-145.24470949 403.9108146 -150.31121816 404.68252989 -155.5 405.6875 C-164.88404491 407.44617176 -174.28167008 409.11223084 -183.69116211 410.72817993 C-185.20775229 410.98883635 -186.72419621 411.25034545 -188.24047852 411.51278687 C-197.80815266 413.16843426 -207.37822921 414.6867274 -217 416 C-215.38353793 411.87644382 -213.50967095 407.94342099 -211.5 404 C-208.26893017 397.61037626 -205.17359838 391.16592071 -202.125 384.6875 C-198.47409052 376.95305883 -194.62651157 369.3524047 -190.60546875 361.80444336 C-188.03940568 356.98653928 -185.54409326 352.14325124 -183.125 347.25 C-179.99675658 340.9364342 -176.76739939 334.68012307 -173.5 328.4375 C-166.40918104 314.87648074 -166.40918104 314.87648074 -159.34741211 301.30032349 C-158.61730161 299.89465774 -157.88569886 298.48976606 -157.15258789 297.08566284 C-156.1239503 295.11505382 -155.10045267 293.14185689 -154.078125 291.16796875 C-153.48418945 290.02610107 -152.89025391 288.8842334 -152.27832031 287.70776367 C-150.85769605 285.197626 -150.85769605 285.197626 -151 283 C-150.34 283 -149.68 283 -149 283 C-148.78085937 282.22527344 -148.56171875 281.45054687 -148.3359375 280.65234375 C-146.52924291 275.71298866 -144.09092504 271.20093621 -141.625 266.5625 C-140.53373586 264.49094773 -139.44259339 262.41933137 -138.3515625 260.34765625 C-137.7937207 259.2920752 -137.23587891 258.23649414 -136.66113281 257.14892578 C-134.09002537 252.27500693 -131.5458446 247.38714621 -129 242.5 C-128.00655876 240.597631 -127.01306895 238.69528737 -126.01953125 236.79296875 C-123.94644093 232.82050322 -121.88262645 228.84337352 -119.82421875 224.86328125 C-115.26525084 216.06182294 -110.69385104 207.33238886 -105.61328125 198.8203125 C-103.76263877 195.58504889 -102.08657624 192.27814349 -100.4375 188.9375 C-92.04612633 171.94502075 -83.32804875 155.14719258 -73.89794922 138.70703125 C-69.07814726 130.25523199 -64.60892261 121.63908574 -60.16455078 112.98535156 C-56.49592356 105.85230681 -52.74052323 98.77816622 -48.875 91.75 C-46.91364043 88.16831511 -44.95568158 84.58478819 -43 81 C-42.4440918 79.98228516 -41.88818359 78.96457031 -41.31542969 77.91601562 C-39.61320198 74.7845318 -37.92953323 71.64370334 -36.25 68.5 C-35.46085205 67.05705566 -35.46085205 67.05705566 -34.65576172 65.58496094 C-31.21533164 59.18009872 -31.21533164 59.18009872 -31 52 C-30.01 52 -29.02 52 -28 52 C-27.50709473 51.06430176 -27.01418945 50.12860352 -26.50634766 49.16455078 C-8.46444272 14.92974571 -8.46444272 14.92974571 0 0 Z M-30 54 C-29 56 -29 56 -29 56 Z M-151 365 C-151.99 365.33 -152.98 365.66 -154 366 C-154 366.66 -154 367.32 -154 368 C-152.41439607 367.74279326 -150.83154076 367.46861201 -149.25 367.1875 C-148.36828125 367.03667969 -147.4865625 366.88585937 -146.578125 366.73046875 C-143.8089089 365.94585752 -142.1740599 364.85404641 -140 363 C-144.64953886 361.49573743 -146.84832259 362.65339973 -151 365 Z M-163 371 C-160.03 370.34 -157.06 369.68 -154 369 C-154 368.67 -154 368.34 -154 368 C-158.09590633 367.65867447 -159.92807025 368.26939578 -163 371 Z " fill="#FDFDFD" transform="translate(511,292)"/>
<path d="M0 0 C-2.475 1.485 -2.475 1.485 -5 3 C-4.3247226 2.97134354 -3.64944519 2.94268707 -2.95370483 2.91316223 C23.48274232 1.83458742 49.91965989 1.71998654 76.375 1.6875 C78.09003723 1.68444855 78.09003723 1.68444855 79.83972168 1.68133545 C115.72910484 1.62160574 151.2729538 2.33768556 187 6 C187 6.33 187 6.66 187 7 C176.22657987 7.33492498 165.57796697 6.64339124 154.83911133 5.79931641 C129.7969892 3.90040435 104.73675261 3.81192998 79.63818359 3.81469727 C75.82107756 3.81477801 72.00409288 3.80790106 68.18701172 3.79418945 C45.78262052 3.71476801 23.48361721 4.03327335 1.11495972 5.38594055 C0.31052807 5.43321352 -0.49390358 5.48048649 -1.32271194 5.52919197 C-2.82223434 5.61850065 -4.32146701 5.71287109 -5.82029343 5.81318474 C-10.7779733 6.11101335 -10.7779733 6.11101335 -13 5 C-12.67 3.68 -12.34 2.36 -12 1 C-11.34 1.66 -10.68 2.32 -10 3 C-8.906875 2.319375 -7.81375 1.63875 -6.6875 0.9375 C-3.375 -1.125 -3.375 -1.125 0 0 Z " fill="#EBEAEA" transform="translate(429,687)"/>
<path d="M0 0 C3.97338232 1.0356849 5.81481905 0.82030218 9.5625 -1 C11.69921875 -0.56640625 11.69921875 -0.56640625 13.5625 0 C-13.21523853 9.84840978 -13.21523853 9.84840978 -26.0625 13.5 C-27.27425903 13.84538818 -27.27425903 13.84538818 -28.51049805 14.19775391 C-34.10242291 15.74079627 -39.73786759 16.92748047 -45.4375 18 C-43.47488614 14.07477227 -37.88740717 12.95962013 -34 11.3125 C-33.01966797 10.88388672 -32.03933594 10.45527344 -31.02929688 10.01367188 C-30.09279297 9.61341797 -29.15628906 9.21316406 -28.19140625 8.80078125 C-26.89698608 8.24644409 -26.89698608 8.24644409 -25.57641602 7.6809082 C-23.4375 7 -23.4375 7 -21.4375 8 C-22.0975 8.66 -22.7575 9.32 -23.4375 10 C-17.4975 8.02 -11.5575 6.04 -5.4375 4 C-6.4275 3.01 -7.4175 2.02 -8.4375 1 C-5.18548879 -1.00577562 -3.62303341 -1.10511938 0 0 Z " fill="#E9EAE9" transform="translate(374.4375,652)"/>
<path d="M0 0 C-3.47026535 2.31351023 -5.76448394 2.63844153 -9.875 3.3125 C-11.39978203 3.56745461 -12.92451795 3.82268508 -14.44921875 4.078125 C-15.31337402 4.22056641 -16.1775293 4.36300781 -17.06787109 4.50976562 C-20.40887319 5.06836115 -23.7454284 5.65008101 -27.08203125 6.234375 C-29.6171809 6.67712113 -32.15233718 7.11982932 -34.6875 7.5625 C-35.88552246 7.77237549 -37.08354492 7.98225098 -38.31787109 8.19848633 C-46.527508 9.61992503 -54.74599782 10.86539949 -63 12 C-62.34 10.35 -61.68 8.7 -61 7 C-60.67 7.66 -60.34 8.32 -60 9 C-53.34619215 8.33147822 -46.81446671 7.33605411 -40.234375 6.15234375 C-38.19011601 5.79094863 -36.14584482 5.42962252 -34.1015625 5.06835938 C-30.91283064 4.50133681 -27.72435543 3.93291616 -24.53613281 3.36303711 C-21.4361772 2.81001682 -18.33533957 2.26217366 -15.234375 1.71484375 C-14.28222107 1.54299057 -13.33006714 1.37113739 -12.34906006 1.19407654 C-11.45753235 1.03713821 -10.56600464 0.88019989 -9.64746094 0.71850586 C-8.86852478 0.57940292 -8.08958862 0.44029999 -7.28704834 0.29698181 C-4.83473392 -0.02146042 -2.47017053 -0.05020381 0 0 Z " fill="#E7E7E6" transform="translate(357,696)"/>
<path d="M0 0 C7.02710329 -0.27289722 13.59101559 0.77687836 20.5 2 C21.60859375 2.19078125 22.7171875 2.3815625 23.859375 2.578125 C26.57400201 3.04616414 29.28742095 3.52025883 32 4 C32.33 3.34 32.66 2.68 33 2 C34.32 3.32 35.64 4.64 37 6 C36.67 6.66 36.34 7.32 36 8 C34.02 7.67 32.04 7.34 30 7 C30 6.34 30 5.68 30 5 C21.67514847 4.20149383 13.34325541 3.57245694 5 3 C5 2.34 5 1.68 5 1 C3.35 1 1.7 1 0 1 C0 0.67 0 0.34 0 0 Z " fill="#E7E6E5" transform="translate(706,704)"/>
<path d="M0 0 C-2.475 1.485 -2.475 1.485 -5 3 C-4.09507812 2.96519531 -4.09507812 2.96519531 -3.171875 2.9296875 C-1.97304688 2.90261719 -1.97304688 2.90261719 -0.75 2.875 C0.03890625 2.85179687 0.8278125 2.82859375 1.640625 2.8046875 C4.22216563 3.01839119 5.73802582 3.793892 8 5 C4.87549468 5.19645093 1.75038555 5.38063489 -1.375 5.5625 C-2.70917969 5.64661133 -2.70917969 5.64661133 -4.0703125 5.73242188 C-5.34648437 5.80493164 -5.34648437 5.80493164 -6.6484375 5.87890625 C-7.43395996 5.9260376 -8.21948242 5.97316895 -9.02880859 6.02172852 C-11 6 -11 6 -13 5 C-12.67 3.68 -12.34 2.36 -12 1 C-11.34 1.66 -10.68 2.32 -10 3 C-8.906875 2.319375 -7.81375 1.63875 -6.6875 0.9375 C-3.375 -1.125 -3.375 -1.125 0 0 Z " fill="#EEEEEE" transform="translate(429,687)"/>
<path d="M0 0 C0 0.33 0 0.66 0 1 C-4.26995856 1.83785848 -8.54110216 2.66951277 -12.8125 3.5 C-14.02744141 3.73847656 -15.24238281 3.97695313 -16.49414062 4.22265625 C-17.65751953 4.44824219 -18.82089844 4.67382812 -20.01953125 4.90625 C-21.62985229 5.22045898 -21.62985229 5.22045898 -23.27270508 5.54101562 C-26 6 -26 6 -29 6 C-28.34 4.35 -27.68 2.7 -27 1 C-26.67 1.66 -26.34 2.32 -26 3 C-21.21228577 2.53667282 -16.57745176 1.95444126 -11.875 0.9375 C-7.8041787 0.07881113 -4.15055778 -0.18045903 0 0 Z " fill="#E0E1E0" transform="translate(323,702)"/>
<path d="M0 0 C2.90022188 0.55093821 4.57354209 -0.32009544 7.1796875 -1.5859375 C9.31640625 -1.15234375 9.31640625 -1.15234375 11.1796875 -0.5859375 C8.83388331 0.34091177 6.48334807 1.22958438 4.1171875 2.1015625 C3.46041016 2.36517578 2.80363281 2.62878906 2.12695312 2.90039062 C-1.7169302 4.28267379 -3.98651361 4.69997631 -7.81640625 3.05859375 C-9.30333984 2.24455078 -9.30333984 2.24455078 -10.8203125 1.4140625 C-7.28968165 -2.57708542 -4.5918045 -1.24957303 0 0 Z " fill="#EDEDEC" transform="translate(376.8203125,652.5859375)"/>
<path d="M0 0 C0 2.31 0 4.62 0 7 C-0.66 6.67 -1.32 6.34 -2 6 C-5.13323425 6 -6.68020784 8.04649081 -9 10 C-9.66 9.67 -10.32 9.34 -11 9 C-10.195625 8.4225 -9.39125 7.845 -8.5625 7.25 C-6.02133261 5.01873107 -5.34879632 4.25543229 -5 1 C-1.125 0 -1.125 0 0 0 Z " fill="#F3F3F1" transform="translate(598,576)"/>
<path d="M0 0 C1.65 1.32 3.3 2.64 5 4 C4.67 4.66 4.34 5.32 4 6 C1.03 5.505 1.03 5.505 -2 5 C-2 4.34 -2 3.68 -2 3 C-4.64 2.67 -7.28 2.34 -10 2 C-10 1.67 -10 1.34 -10 1 C-6.7 1.33 -3.4 1.66 0 2 C0 1.34 0 0.68 0 0 Z " fill="#DBDCDA" transform="translate(738,706)"/>
<path d="M0 0 C-3.00440021 2.00293347 -4.70993945 2.49271626 -8.1875 3.125 C-9.08855469 3.29257812 -9.98960937 3.46015625 -10.91796875 3.6328125 C-11.60503906 3.75398437 -12.29210937 3.87515625 -13 4 C-10.38097629 -1.23804742 -5.04651297 -1.32170578 0 0 Z " fill="#E4E5E4" transform="translate(342,666)"/>
<path d="M0 0 C0.33 0.66 0.66 1.32 1 2 C-0.32 2.33 -1.64 2.66 -3 3 C-3 2.34 -3 1.68 -3 1 C-2.01 0.67 -1.02 0.34 0 0 Z " fill="#FDFEFC" transform="translate(399,642)"/>
<path d="M0 0 C0.66 0.66 1.32 1.32 2 2 C1.67 2.99 1.34 3.98 1 5 C0.67 3.35 0.34 1.7 0 0 Z " fill="#FDFEFE" transform="translate(633,639)"/>
<path d="M0 0 C1.98 0.99 1.98 0.99 4 2 C2.68 1.67 1.36 1.34 0 1 C0 0.67 0 0.34 0 0 Z " fill="#FBFCFC" transform="translate(639,698)"/>
<path d="M0 0 C0.99 0.33 1.98 0.66 3 1 C1.68 1.33 0.36 1.66 -1 2 C-0.67 1.34 -0.34 0.68 0 0 Z " fill="#FCFDFC" transform="translate(450,674)"/>
<path d="M0 0 C0.33 0.66 0.66 1.32 1 2 C0.34 2.66 -0.32 3.32 -1 4 C-0.67 2.68 -0.34 1.36 0 0 Z " fill="#FBFAFB" transform="translate(417,464)"/>
<path d="M0 0 C0.33 0.66 0.66 1.32 1 2 C0.34 2.66 -0.32 3.32 -1 4 C-0.67 2.68 -0.34 1.36 0 0 Z " fill="#FAF9F9" transform="translate(473,360)"/>
<path d="M0 0 C4 1 4 1 4 1 Z " fill="#F9FAF9" transform="translate(337,701)"/>
<path d="M0 0 C4 1 4 1 4 1 Z " fill="#FBFBFA" transform="translate(656,700)"/>
<path d="M0 0 C0.99 0 1.98 0 3 0 C2.67 0.66 2.34 1.32 2 2 C1.34 1.34 0.68 0.68 0 0 Z " fill="#FDFEFE" transform="translate(570,494)"/>
<path d="M0 0 C0.66 0.33 1.32 0.66 2 1 C1.01 1 0.02 1 -1 1 C-0.67 0.67 -0.34 0.34 0 0 Z " fill="#FCFCFB" transform="translate(538,412)"/>
<path d="M0 0 C3 1 3 1 3 1 Z " fill="#FCFBFB" transform="translate(684,703)"/>
<path d="M0 0 C3 1 3 1 3 1 Z " fill="#FAFAF9" transform="translate(664,701)"/>
<path d="M0 0 C3 1 3 1 3 1 Z " fill="#F9FAF9" transform="translate(350,699)"/>
<path d="M0 0 C3 1 3 1 3 1 Z " fill="#F7F8F8" transform="translate(372,695)"/>
<path d="M0 0 C3 1 3 1 3 1 Z " fill="#F9FAFA" transform="translate(384,693)"/>
<path d="M0 0 C0.66 0 1.32 0 2 0 C1.67 0.66 1.34 1.32 1 2 C0.67 1.34 0.34 0.68 0 0 Z " fill="#FBFBFA" transform="translate(446,675)"/>
<path d="M0 0 C0.33 0.66 0.66 1.32 1 2 C0.34 1.67 -0.32 1.34 -1 1 C-0.67 0.67 -0.34 0.34 0 0 Z " fill="#FBFDFC" transform="translate(465,668)"/>
<path d="M0 0 C3 1 3 1 3 1 Z " fill="#FBFDFB" transform="translate(483,659)"/>
<path d="M0 0 C3 1 3 1 3 1 Z " fill="#FDFEFD" transform="translate(581,657)"/>
<path d="M0 0 C3 1 3 1 3 1 Z " fill="#FEFEFD" transform="translate(416,635)"/>
<path d="M0 0 C3 1 3 1 3 1 Z " fill="#FDFCFB" transform="translate(428,630)"/>
<path d="M0 0 C0.99 0.495 0.99 0.495 2 1 C1.01 1.495 1.01 1.495 0 2 C0 1.34 0 0.68 0 0 Z " fill="#FEFEFE" transform="translate(436,622)"/>
<path d="M0 0 C0.33 0.66 0.66 1.32 1 2 C0.34 1.67 -0.32 1.34 -1 1 C-0.67 0.67 -0.34 0.34 0 0 Z " fill="#FDFDFC" transform="translate(604,571)"/>
<path d="" fill="#F9FBF9" transform="translate(0,0)"/>
<path d="" fill="#E1E3E3" transform="translate(0,0)"/>
<path d="M0 0 C2 1 2 1 2 1 Z " fill="#FAFCFB" transform="translate(675,702)"/>
<path d="M0 0 C2 1 2 1 2 1 Z " fill="#F7F8F7" transform="translate(332,702)"/>
<path d="M0 0 C2 1 2 1 2 1 Z " fill="#F8FAF9" transform="translate(358,698)"/>
<path d="" fill="#EFEEEF" transform="translate(0,0)"/>
<path d="" fill="#F2F2F3" transform="translate(0,0)"/>
<path d="M0 0 C2 1 2 1 2 1 Z " fill="#FAFAFB" transform="translate(604,695)"/>
<path d="M0 0 C2 1 2 1 2 1 Z " fill="#FAF9F9" transform="translate(444,692)"/>
<path d="M0 0 C2 1 2 1 2 1 Z " fill="#F8FAF9" transform="translate(486,691)"/>
<path d="M0 0 C2 1 2 1 2 1 Z " fill="#FAFBFB" transform="translate(394,691)"/>
<path d="" fill="#FCFCFB" transform="translate(0,0)"/>
<path d="" fill="#FCFBFA" transform="translate(0,0)"/>
<path d="M0 0 C2 1 2 1 2 1 Z " fill="#FCFCFB" transform="translate(604,660)"/>
<path d="M0 0 C2 1 2 1 2 1 Z " fill="#FBFDFC" transform="translate(598,659)"/>
<path d="M0 0 C2 1 2 1 2 1 Z " fill="#FDFDFC" transform="translate(492,654)"/>
<path d="M0 0 C2 1 2 1 2 1 Z " fill="#FDFEFE" transform="translate(540,652)"/>
<path d="M0 0 C2 1 2 1 2 1 Z " fill="#FAFCFA" transform="translate(380,651)"/>
<path d="M0 0 C2 1 2 1 2 1 Z " fill="#FDFFFE" transform="translate(635,646)"/>
<path d="M0 0 C2 1 2 1 2 1 Z " fill="#FDFCFD" transform="translate(398,645)"/>
<path d="M0 0 C2 1 2 1 2 1 Z " fill="#FCFEFE" transform="translate(406,642)"/>
<path d="" fill="#FCFDFD" transform="translate(0,0)"/>
<path d="" fill="#F8FAF8" transform="translate(0,0)"/>
<path d="M0 0 C2 1 2 1 2 1 Z " fill="#FDFDFD" transform="translate(532,596)"/>
<path d="M0 0 C2 1 2 1 2 1 Z " fill="#FCFCFB" transform="translate(544,592)"/>
<path d="" fill="#FDFDFD" transform="translate(0,0)"/>
<path d="M0 0 C2 1 2 1 2 1 Z " fill="#FAF8F7" transform="translate(582,591)"/>
<path d="" fill="#FCFBFC" transform="translate(0,0)"/>
<path d="M0 0 C2 1 2 1 2 1 Z " fill="#FDFDFD" transform="translate(556,588)"/>
<path d="" fill="#FAFBFA" transform="translate(0,0)"/>
<path d="M0 0 C2 1 2 1 2 1 Z " fill="#FCFEFE" transform="translate(587,577)"/>
<path d="" fill="#FCFCFC" transform="translate(0,0)"/>
<path d="" fill="#FDFCFD" transform="translate(0,0)"/>
<path d="" fill="#F9F9F8" transform="translate(0,0)"/>
<path d="" fill="#F8FAF8" transform="translate(0,0)"/>
<path d="" fill="#F9FAF9" transform="translate(0,0)"/>
<path d="" fill="#FEFEFD" transform="translate(0,0)"/>
<path d="" fill="#FBFBFB" transform="translate(0,0)"/>
<path d="M0 0 C2 1 2 1 2 1 Z " fill="#FCFEFE" transform="translate(585,529)"/>
<path d="" fill="#FDFDFC" transform="translate(0,0)"/>
<path d="" fill="#FEFEFE" transform="translate(0,0)"/>
<path d="" fill="#FDFDFC" transform="translate(0,0)"/>
<path d="" fill="#FCF9FA" transform="translate(0,0)"/>
<path d="" fill="#FAF9F9" transform="translate(0,0)"/>
<path d="M0 0 C2 1 2 1 2 1 Z " fill="#FFFEFE" transform="translate(564,478)"/>
<path d="" fill="#F8F7F7" transform="translate(0,0)"/>
<path d="" fill="#FDFDFE" transform="translate(0,0)"/>
<path d="" fill="#FFFFFE" transform="translate(0,0)"/>
<path d="M0 0 C2 1 2 1 2 1 Z " fill="#FBFCFB" transform="translate(432,435)"/>
<path d="" fill="#FDFDFC" transform="translate(0,0)"/>
<path d="" fill="#F9F9F8" transform="translate(0,0)"/>
<path d="" fill="#FAF9F9" transform="translate(0,0)"/>
<path d="" fill="#F8F8F6" transform="translate(0,0)"/>
<path d="M0 0 C2 1 2 1 2 1 Z " fill="#F9F8F8" transform="translate(540,340)"/>
<path d="" fill="#6B6C6B" transform="translate(0,0)"/>
<path d="" fill="#EDEDED" transform="translate(0,0)"/>
<path d="" fill="#F4F6F6" transform="translate(0,0)"/>
<path d="" fill="#E1E1E1" transform="translate(0,0)"/>
<path d="" fill="#F5F6F5" transform="translate(0,0)"/>
<path d="" fill="#E8EAED" transform="translate(0,0)"/>
<path d="" fill="#DEDFDF" transform="translate(0,0)"/>
<path d="" fill="#E0E3E2" transform="translate(0,0)"/>
<path d="" fill="#F7F7F7" transform="translate(0,0)"/>
<path d="" fill="#F5F7F5" transform="translate(0,0)"/>
<path d="" fill="#DFE2E2" transform="translate(0,0)"/>
<path d="" fill="#F3F4F2" transform="translate(0,0)"/>
<path d="" fill="#F5F5F5" transform="translate(0,0)"/>
<path d="" fill="#E9EAEB" transform="translate(0,0)"/>
<path d="" fill="#F6F6F5" transform="translate(0,0)"/>
<path d="" fill="#F7F8F7" transform="translate(0,0)"/>
<path d="" fill="#FAF9F9" transform="translate(0,0)"/>
<path d="" fill="#FDFBFC" transform="translate(0,0)"/>
<path d="" fill="#FBFAFA" transform="translate(0,0)"/>
<path d="" fill="#FCFDFD" transform="translate(0,0)"/>
<path d="" fill="#FAFAF8" transform="translate(0,0)"/>
<path d="" fill="#FCFAFD" transform="translate(0,0)"/>
<path d="" fill="#FAFBFC" transform="translate(0,0)"/>
<path d="" fill="#FCFCFB" transform="translate(0,0)"/>
<path d="" fill="#FAFAFA" transform="translate(0,0)"/>
<path d="" fill="#F1EFF0" transform="translate(0,0)"/>
<path d="" fill="#FCFBFB" transform="translate(0,0)"/>
<path d="" fill="#F2F3F3" transform="translate(0,0)"/>
<path d="" fill="#F8F9F8" transform="translate(0,0)"/>
<path d="" fill="#F6F7F6" transform="translate(0,0)"/>
<path d="" fill="#F0F3F0" transform="translate(0,0)"/>
<path d="" fill="#F7F7F8" transform="translate(0,0)"/>
<path d="" fill="#FBFBFA" transform="translate(0,0)"/>
<path d="" fill="#F9FAFA" transform="translate(0,0)"/>
<path d="" fill="#F8F9F6" transform="translate(0,0)"/>
<path d="" fill="#F9FAF9" transform="translate(0,0)"/>
<path d="" fill="#FAFBFB" transform="translate(0,0)"/>
<path d="" fill="#FCFCFC" transform="translate(0,0)"/>
<path d="" fill="#FBFDFC" transform="translate(0,0)"/>
<path d="" fill="#FCFCFB" transform="translate(0,0)"/>
<path d="" fill="#FBFEFC" transform="translate(0,0)"/>
<path d="" fill="#F8F7F8" transform="translate(0,0)"/>
<path d="" fill="#F9F9F8" transform="translate(0,0)"/>
<path d="" fill="#FCFBFB" transform="translate(0,0)"/>
<path d="" fill="#FCFDFC" transform="translate(0,0)"/>
<path d="" fill="#F8FAF8" transform="translate(0,0)"/>
<path d="" fill="#FAFBF9" transform="translate(0,0)"/>
<path d="" fill="#FAFDFC" transform="translate(0,0)"/>
<path d="" fill="#FEFFFD" transform="translate(0,0)"/>
<path d="" fill="#FAF9FA" transform="translate(0,0)"/>
<path d="" fill="#FDFEFD" transform="translate(0,0)"/>
<path d="" fill="#FBFDFF" transform="translate(0,0)"/>
<path d="" fill="#FCFBFC" transform="translate(0,0)"/>
<path d="" fill="#FCFDFC" transform="translate(0,0)"/>
<path d="" fill="#FDFEFD" transform="translate(0,0)"/>
<path d="" fill="#F8F8F6" transform="translate(0,0)"/>
<path d="" fill="#FDFFFE" transform="translate(0,0)"/>
<path d="" fill="#FDFFFD" transform="translate(0,0)"/>
<path d="" fill="#FFFEFE" transform="translate(0,0)"/>
<path d="" fill="#FAFCF9" transform="translate(0,0)"/>
<path d="" fill="#FFFFFE" transform="translate(0,0)"/>
<path d="" fill="#FFFFFE" transform="translate(0,0)"/>
<path d="" fill="#FDFDFE" transform="translate(0,0)"/>
<path d="" fill="#FFFFFE" transform="translate(0,0)"/>
<path d="" fill="#FDFDFC" transform="translate(0,0)"/>
<path d="" fill="#F9FCFC" transform="translate(0,0)"/>
<path d="" fill="#FFFFFE" transform="translate(0,0)"/>
<path d="" fill="#FAFCFB" transform="translate(0,0)"/>
<path d="" fill="#FDFDFC" transform="translate(0,0)"/>
<path d="" fill="#FCFCFD" transform="translate(0,0)"/>
<path d="" fill="#FDFFFE" transform="translate(0,0)"/>
<path d="" fill="#FFFFFC" transform="translate(0,0)"/>
<path d="" fill="#FDFBFA" transform="translate(0,0)"/>
<path d="" fill="#FBFAFC" transform="translate(0,0)"/>
<path d="" fill="#FBFDFC" transform="translate(0,0)"/>
<path d="" fill="#FDFCFB" transform="translate(0,0)"/>
<path d="" fill="#FCFEFE" transform="translate(0,0)"/>
<path d="" fill="#F9FCF9" transform="translate(0,0)"/>
<path d="" fill="#FDFDFE" transform="translate(0,0)"/>
<path d="" fill="#FDFDFD" transform="translate(0,0)"/>
<path d="" fill="#FEFEFC" transform="translate(0,0)"/>
<path d="" fill="#FCFEFD" transform="translate(0,0)"/>
<path d="" fill="#FEFEFD" transform="translate(0,0)"/>
<path d="" fill="#FBFCFB" transform="translate(0,0)"/>
<path d="" fill="#F9FBF9" transform="translate(0,0)"/>
<path d="" fill="#FEFEFD" transform="translate(0,0)"/>
<path d="" fill="#FBFDFC" transform="translate(0,0)"/>
<path d="" fill="#FCFDFC" transform="translate(0,0)"/>
<path d="" fill="#FDFFFB" transform="translate(0,0)"/>
<path d="" fill="#FAFBF9" transform="translate(0,0)"/>
<path d="" fill="#FCFDFB" transform="translate(0,0)"/>
<path d="" fill="#FEFFFF" transform="translate(0,0)"/>
<path d="" fill="#FDFFFF" transform="translate(0,0)"/>
<path d="" fill="#FAFBFA" transform="translate(0,0)"/>
<path d="" fill="#FFFEFE" transform="translate(0,0)"/>
<path d="" fill="#FDFCFC" transform="translate(0,0)"/>
<path d="" fill="#FCFDFC" transform="translate(0,0)"/>
<path d="" fill="#FDFCFE" transform="translate(0,0)"/>
<path d="" fill="#FEFFFD" transform="translate(0,0)"/>
<path d="" fill="#FCFEFC" transform="translate(0,0)"/>
<path d="" fill="#FFFFFD" transform="translate(0,0)"/>
<path d="" fill="#FCFCFC" transform="translate(0,0)"/>
<path d="" fill="#FFFFFE" transform="translate(0,0)"/>
<path d="" fill="#FCFEFC" transform="translate(0,0)"/>
<path d="" fill="#FBFCFA" transform="translate(0,0)"/>
<path d="" fill="#F8FBFA" transform="translate(0,0)"/>
<path d="" fill="#FFFFFD" transform="translate(0,0)"/>
<path d="" fill="#FDFCFD" transform="translate(0,0)"/>
<path d="" fill="#FCFCFA" transform="translate(0,0)"/>
<path d="" fill="#FEFEFF" transform="translate(0,0)"/>
<path d="" fill="#FDFDFB" transform="translate(0,0)"/>
<path d="" fill="#FFFEFE" transform="translate(0,0)"/>
<path d="" fill="#FEFCFA" transform="translate(0,0)"/>
<path d="" fill="#FDFEFE" transform="translate(0,0)"/>
<path d="" fill="#FDFBFC" transform="translate(0,0)"/>
<path d="" fill="#FDFDFB" transform="translate(0,0)"/>
<path d="" fill="#FFFEFE" transform="translate(0,0)"/>
<path d="" fill="#FAF9F9" transform="translate(0,0)"/>
<path d="" fill="#FCFFFD" transform="translate(0,0)"/>
<path d="" fill="#FEFCFE" transform="translate(0,0)"/>
<path d="" fill="#FCFDFD" transform="translate(0,0)"/>
<path d="" fill="#FAF9FA" transform="translate(0,0)"/>
<path d="" fill="#FEFEFE" transform="translate(0,0)"/>
<path d="" fill="#FFFFFE" transform="translate(0,0)"/>
<path d="" fill="#FCFDFD" transform="translate(0,0)"/>
<path d="" fill="#FEFDFC" transform="translate(0,0)"/>
<path d="" fill="#FEFFFD" transform="translate(0,0)"/>
<path d="" fill="#FFFFFE" transform="translate(0,0)"/>
<path d="" fill="#FDFFFE" transform="translate(0,0)"/>
<path d="" fill="#FEFFFE" transform="translate(0,0)"/>
<path d="" fill="#FDFDFD" transform="translate(0,0)"/>
<path d="" fill="#FBFAF9" transform="translate(0,0)"/>
<path d="" fill="#FBFDFC" transform="translate(0,0)"/>
<path d="" fill="#FCFCFC" transform="translate(0,0)"/>
<path d="" fill="#FDFDFD" transform="translate(0,0)"/>
<path d="" fill="#FCFDFD" transform="translate(0,0)"/>
<path d="" fill="#FDFEFF" transform="translate(0,0)"/>
<path d="" fill="#F9F8F6" transform="translate(0,0)"/>
<path d="" fill="#FCFDFC" transform="translate(0,0)"/>
<path d="" fill="#FCFDFC" transform="translate(0,0)"/>
<path d="" fill="#FEFEFD" transform="translate(0,0)"/>
<path d="" fill="#F9FBFA" transform="translate(0,0)"/>
<path d="" fill="#FEFCFC" transform="translate(0,0)"/>
<path d="" fill="#FDFEFD" transform="translate(0,0)"/>
<path d="" fill="#FAF9F9" transform="translate(0,0)"/>
<path d="" fill="#FCFEFD" transform="translate(0,0)"/>
<path d="" fill="#FAFDFB" transform="translate(0,0)"/>
<path d="" fill="#F9F9F7" transform="translate(0,0)"/>
<path d="" fill="#FCFFFB" transform="translate(0,0)"/>
<path d="" fill="#FBFDFB" transform="translate(0,0)"/>
<path d="" fill="#FEFFFF" transform="translate(0,0)"/>
<path d="" fill="#FCFEFC" transform="translate(0,0)"/>
<path d="" fill="#FDFDFE" transform="translate(0,0)"/>
<path d="" fill="#FDFDFD" transform="translate(0,0)"/>
<path d="" fill="#FEFEFC" transform="translate(0,0)"/>
<path d="" fill="#FBFBFB" transform="translate(0,0)"/>
<path d="" fill="#FFFDFF" transform="translate(0,0)"/>
<path d="" fill="#FAFAF9" transform="translate(0,0)"/>
<path d="" fill="#FBFAFA" transform="translate(0,0)"/>
<path d="" fill="#FCFCFA" transform="translate(0,0)"/>
<path d="" fill="#FDFDFD" transform="translate(0,0)"/>
<path d="" fill="#FBFBFA" transform="translate(0,0)"/>
<path d="" fill="#FAFAF8" transform="translate(0,0)"/>
<path d="" fill="#F8F8F7" transform="translate(0,0)"/>
<path d="" fill="#FEFEFD" transform="translate(0,0)"/>
<path d="" fill="#FDFEFE" transform="translate(0,0)"/>
<path d="" fill="#FDFEFC" transform="translate(0,0)"/>
<path d="" fill="#FAFBFA" transform="translate(0,0)"/>
<path d="" fill="#FBFDFB" transform="translate(0,0)"/>
<path d="" fill="#FEFCFC" transform="translate(0,0)"/>
<path d="" fill="#FAFBF9" transform="translate(0,0)"/>
<path d="" fill="#FDFCFB" transform="translate(0,0)"/>
<path d="" fill="#FCFDFB" transform="translate(0,0)"/>
<path d="" fill="#F9F9FA" transform="translate(0,0)"/>
<path d="" fill="#FFFEFE" transform="translate(0,0)"/>
<path d="" fill="#FAF8F9" transform="translate(0,0)"/>
<path d="" fill="#FCFCFC" transform="translate(0,0)"/>
<path d="" fill="#FCFDFC" transform="translate(0,0)"/>
<path d="" fill="#FDFFFD" transform="translate(0,0)"/>
<path d="" fill="#FBFCFB" transform="translate(0,0)"/>
<path d="" fill="#FDFDFD" transform="translate(0,0)"/>
<path d="" fill="#F9F9F9" transform="translate(0,0)"/>
<path d="" fill="#FCFAFB" transform="translate(0,0)"/>
<path d="" fill="#FAFBF9" transform="translate(0,0)"/>
<path d="" fill="#FCFDFD" transform="translate(0,0)"/>
<path d="" fill="#FDFFFF" transform="translate(0,0)"/>
<path d="" fill="#FEFDFB" transform="translate(0,0)"/>
<path d="" fill="#FAF8FA" transform="translate(0,0)"/>
<path d="" fill="#FAFAF8" transform="translate(0,0)"/>
<path d="" fill="#FDFDFE" transform="translate(0,0)"/>
<path d="" fill="#FBFCFB" transform="translate(0,0)"/>
<path d="" fill="#FDFCFC" transform="translate(0,0)"/>
<path d="" fill="#FCFCFC" transform="translate(0,0)"/>
<path d="" fill="#FAFBF8" transform="translate(0,0)"/>
<path d="" fill="#F9F9F9" transform="translate(0,0)"/>
<path d="" fill="#FCFDFA" transform="translate(0,0)"/>
<path d="" fill="#FDFDFC" transform="translate(0,0)"/>
<path d="" fill="#FBFAF9" transform="translate(0,0)"/>
<path d="" fill="#FDFEFE" transform="translate(0,0)"/>
<path d="" fill="#FBFBFC" transform="translate(0,0)"/>
<path d="" fill="#FEFEFD" transform="translate(0,0)"/>
<path d="" fill="#FFFDFC" transform="translate(0,0)"/>
<path d="" fill="#FAFBFB" transform="translate(0,0)"/>
<path d="" fill="#F9FBFB" transform="translate(0,0)"/>
<path d="" fill="#FBF9F9" transform="translate(0,0)"/>
<path d="" fill="#FBFAF9" transform="translate(0,0)"/>
<path d="" fill="#FBFAF9" transform="translate(0,0)"/>
<path d="" fill="#FCFAFB" transform="translate(0,0)"/>
<path d="" fill="#FCFBFD" transform="translate(0,0)"/>
<path d="" fill="#FDFCFD" transform="translate(0,0)"/>
<path d="" fill="#F9FAFA" transform="translate(0,0)"/>
<path d="" fill="#FEFEFE" transform="translate(0,0)"/>
<path d="" fill="#FFFFFE" transform="translate(0,0)"/>
<path d="" fill="#FDFEFC" transform="translate(0,0)"/>
<path d="" fill="#FFFDFE" transform="translate(0,0)"/>
<path d="" fill="#FAF9F9" transform="translate(0,0)"/>
<path d="" fill="#FCFAFA" transform="translate(0,0)"/>
<path d="" fill="#FCFFFB" transform="translate(0,0)"/>
<path d="" fill="#FCFEFB" transform="translate(0,0)"/>
<path d="" fill="#FAF8F9" transform="translate(0,0)"/>
<path d="" fill="#F9F9F9" transform="translate(0,0)"/>
<path d="" fill="#FAFBF7" transform="translate(0,0)"/>
<path d="" fill="#FAF9FA" transform="translate(0,0)"/>
<path d="" fill="#F9FBFB" transform="translate(0,0)"/>
<path d="" fill="#FBFCFB" transform="translate(0,0)"/>
<path d="" fill="#FBFAFA" transform="translate(0,0)"/>
<path d="" fill="#FAFEFB" transform="translate(0,0)"/>
<path d="" fill="#FBFAFB" transform="translate(0,0)"/>
<path d="" fill="#FAF7F7" transform="translate(0,0)"/>
<path d="" fill="#FBFAF9" transform="translate(0,0)"/>
<path d="" fill="#F8F8F8" transform="translate(0,0)"/>
<path d="" fill="#FDFAFA" transform="translate(0,0)"/>
<path d="" fill="#F9FAFB" transform="translate(0,0)"/>
<path d="" fill="#F9FAFA" transform="translate(0,0)"/>
<path d="" fill="#F9F9F6" transform="translate(0,0)"/>
<path d="" fill="#FAFAF9" transform="translate(0,0)"/>
<path d="" fill="#FCFCFA" transform="translate(0,0)"/>
<path d="" fill="#F9FAF8" transform="translate(0,0)"/>
<path d="" fill="#FAFAF9" transform="translate(0,0)"/>
<path d="" fill="#F8F9F7" transform="translate(0,0)"/>
<path d="" fill="#F8F7F8" transform="translate(0,0)"/>
<path d="" fill="#F9FAF8" transform="translate(0,0)"/>
<path d="" fill="#FAF9F9" transform="translate(0,0)"/>
<path d="" fill="#F9F9F8" transform="translate(0,0)"/>
<path d="" fill="#F9F8F8" transform="translate(0,0)"/>
<path d="" fill="#F8F7F5" transform="translate(0,0)"/>
<path d="" fill="#F7F8F5" transform="translate(0,0)"/>
<path d="" fill="#F4F5F3" transform="translate(0,0)"/>
<path d="" fill="#ECEDEB" transform="translate(0,0)"/>
<path d="" fill="#EEEEEE" transform="translate(0,0)"/>
<path d="" fill="#646566" transform="translate(0,0)"/>
</svg>
