<?xml version="1.0" encoding="UTF-8"?>
<svg version="1.1" xmlns="http://www.w3.org/2000/svg" width="1024" height="1024">
<path d="M0 0 C2.51700557 2.27650694 3.96232817 4.53350295 5.49609375 7.55078125 C5.96547363 8.46448486 6.43485352 9.37818848 6.91845703 10.31958008 C7.41974121 11.30724365 7.92102539 12.29490723 8.4375 13.3125 C12.40835068 21.03239635 16.43701029 28.70818304 20.625 36.3125 C25.73642138 45.61941839 30.72666706 54.98729258 35.6875 64.375 C36.06845825 65.09575714 36.4494165 65.81651428 36.84191895 66.55911255 C38.39613614 69.49988954 39.95003474 72.44083455 41.50350952 75.38200378 C45.61987008 83.17529952 49.74353957 90.96469854 53.875 98.75 C54.23079132 99.42066498 54.58658264 100.09132996 54.95315552 100.78231812 C59.28745136 108.94871823 63.66931561 117.08653054 68.125 125.1875 C73.06502403 134.17028879 77.77997566 143.26225049 82.46578979 152.37905884 C87.07076806 161.33431169 91.79480741 170.21387026 96.65234375 179.03515625 C100.1924155 185.47770619 103.61820306 191.97310999 107 198.5 C110.89095124 206.00885327 114.86310674 213.46409573 118.9375 220.875 C123.23557193 228.69479055 127.40453411 236.57226983 131.5 244.5 C135.68122335 252.59244842 139.93568156 260.63654116 144.3125 268.625 C144.80524414 269.52444336 145.29798828 270.42388672 145.80566406 271.35058594 C146.75446103 273.08119672 147.70350776 274.8116706 148.65283203 276.54199219 C150.69699041 280.27171066 152.73130522 284.00643911 154.75 287.75 C155.08555908 288.36439941 155.42111816 288.97879883 155.7668457 289.61181641 C158 293.76968826 158 293.76968826 158 296 C158.66 296.33 159.32 296.66 160 297 C161.11171908 299.04443255 162.12856298 301.08686001 163.125 303.1875 C167.00602072 311.15420838 171.11655462 318.99281512 175.27923584 326.81484985 C176.00979384 328.18837458 176.73883912 329.56270497 177.46636963 330.93783569 C178.50245521 332.89548531 179.54344895 334.85044164 180.5859375 336.8046875 C181.1948584 337.94921387 181.8037793 339.09374023 182.43115234 340.27294922 C183.86429675 343.03783803 183.86429675 343.03783803 186 345 C187.12793624 347.13155692 188.20028055 349.2676797 189.25 351.4375 C191.97506753 356.99520352 194.77178476 362.51120004 197.640625 367.99609375 C197.95743225 368.60257248 198.2742395 369.20905121 198.60064697 369.83390808 C199.88829238 372.29769989 201.17660061 374.76109945 202.47229004 377.22067261 C203.39127635 378.9655889 204.305118 380.71321176 205.21875 382.4609375 C205.75435547 383.47978027 206.28996094 384.49862305 206.84179688 385.54833984 C208 388 208 388 208 390 C206.67222534 389.77449463 206.67222534 389.77449463 205.31762695 389.54443359 C136.9846871 378.01692586 68.56282596 371.12523009 -0.72741699 370.03643799 C-2.76526967 370.0037636 -4.8030519 369.96676296 -6.84082031 369.92919922 C-34.89268155 369.4565043 -62.97341546 370.9360187 -91 372 C-91.33 371.34 -91.66 370.68 -92 370 C-91.04150146 369.69932617 -90.08300293 369.39865234 -89.09545898 369.08886719 C-67.06605925 362.15710427 -45.41967043 354.64103449 -24 346 C-24 345.34 -24 344.68 -24 344 C-22.96359375 343.90074219 -21.9271875 343.80148437 -20.859375 343.69921875 C-16.91259583 342.98416463 -14.68620863 341.79877404 -11.25 339.8125 C-0.27602105 334.56578897 12.39698717 337.50572042 24 339 C24.76391052 339.09831116 25.52782104 339.19662231 26.31488037 339.2979126 C33.74862952 340.26177928 41.17892789 341.24940552 48.59790039 342.3215332 C49.36874466 342.43168259 50.13958893 342.54183197 50.93379211 342.65531921 C52.3749225 342.8621719 53.81548404 343.073048 55.2552948 343.28889465 C59.53639056 343.90202411 63.67797638 344.09182373 68 344 C68 344.66 68 345.32 68 346 C68.56855713 346.02868164 69.13711426 346.05736328 69.72290039 346.08691406 C79.45101492 346.76542572 88.90137257 348.80621877 98.4375 350.75 C99.3248584 350.92885742 100.2122168 351.10771484 101.12646484 351.29199219 C113.84486116 353.8563892 126.46643804 356.63714008 139 360 C138.57928223 359.09386963 138.15856445 358.18773926 137.72509766 357.25415039 C127.26288543 334.69807138 117.09256653 312.02795805 107.15745544 289.23500061 C104.9238382 284.11114502 102.67877649 278.99254482 100.421875 273.87890625 C90.76139583 251.97011823 81.46253756 229.91098946 72.19134521 207.83514404 C71.0346314 205.08241525 69.87629999 202.33037395 68.71728516 199.57861328 C61.61150082 182.70695584 54.54174902 165.82218643 47.63671875 148.8671875 C47.18647842 147.76177612 46.7362381 146.65636475 46.27235413 145.51745605 C44.08352868 140.13989564 41.89971532 134.76036292 39.72290039 129.37792969 C35.70592063 119.46734459 31.6103247 109.65218393 27 100 C26.63986816 100.9345829 26.63986816 100.9345829 26.27246094 101.88804626 C23.18295571 109.90503805 20.09200721 117.92147289 17 125.9375 C16.75018749 126.58515068 16.50037498 127.23280136 16.2429924 127.90007782 C9.71571034 144.82128444 3.16969986 161.73479778 -3.4375 178.625 C-11.03633488 198.05351498 -18.52764144 217.52255162 -26 237 C-26.97007046 239.52845559 -27.94021163 242.05688395 -28.91055298 244.5852356 C-29.56014537 246.27792873 -30.20953982 247.97069785 -30.85873413 249.6635437 C-32.44710114 253.8032687 -34.04057048 257.94088721 -35.64550781 262.07421875 C-38.27001687 268.84077971 -40.88492591 275.60333933 -43.30722046 282.44544983 C-44.01646956 284.4434521 -44.73962582 286.4358189 -45.46777344 288.42700195 C-46.33229353 290.80443221 -47.16995998 293.19189328 -47.97363281 295.59057617 C-49.94767262 300.93027976 -51.45060572 304.27575631 -56.63671875 306.9296875 C-58.41388474 307.64663389 -60.20224106 308.33637823 -62 309 C-63.770778 309.80516836 -65.53636063 310.62184945 -67.296875 311.44921875 C-87.3531362 320.47032574 -107.61823597 328.97166385 -127.98339844 337.2668457 C-129.54495893 337.90306662 -131.10648278 338.53937747 -132.66796875 339.17578125 C-133.42437653 339.4840535 -134.1807843 339.79232574 -134.96011353 340.10993958 C-143.67002546 343.66857659 -152.33587639 347.33159251 -161 351 C-140.39212974 345.29877456 -120.20875967 338.91451569 -100.4375 330.75 C-99.81439941 330.49369812 -99.19129883 330.23739624 -98.54931641 329.97332764 C-90.55303154 326.70346015 -90.55303154 326.70346015 -82.91015625 322.703125 C-80.34283358 321.20063818 -78.79315395 320.68956392 -76 320 C-74.42769174 319.35266986 -72.86989084 318.66951874 -71.32421875 317.9609375 C-69.97166992 317.34351685 -69.97166992 317.34351685 -68.59179688 316.71362305 C-67.63337891 316.27187744 -66.67496094 315.83013184 -65.6875 315.375 C-64.68912109 314.91843018 -63.69074219 314.46186035 -62.66210938 313.99145508 C-58.5213868 312.09451495 -54.38430631 310.1909567 -50.26953125 308.23828125 C-19.12557665 293.46629801 12.94237994 280.53397784 45.56811523 269.42529297 C46.79344971 269.0026416 48.01878418 268.57999023 49.28125 268.14453125 C50.36470703 267.77690674 51.44816406 267.40928223 52.56445312 267.03051758 C55.1461034 266.24901069 55.1461034 266.24901069 56 264 C57.8450295 263.79499672 59.6908028 263.59535786 61.5390625 263.421875 C65.39580392 262.76071933 68.88150311 261.23480585 72.484375 259.7421875 C75.17022728 258.94977767 76.41140499 259.04439717 79 260 C78.33355469 260.53367187 77.66710937 261.06734375 76.98046875 261.6171875 C72.13208573 265.53657965 67.42464676 269.48689013 62.875 273.75 C55.6642338 280.36754004 47.85444258 286.17377171 40 292 C39.27361328 292.54060059 38.54722656 293.08120117 37.79882812 293.63818359 C20.62122773 306.375811 2.88323891 317.95491899 -16 328 C-16.88026855 328.4729248 -17.76053711 328.94584961 -18.66748047 329.43310547 C-71.528895 357.78763974 -127.2054943 373.01274836 -185.375 386.125 C-186.25527863 386.32344513 -187.13555725 386.52189026 -188.04251099 386.72634888 C-190.51460232 387.28178445 -192.98751244 387.83334975 -195.4609375 388.3828125 C-196.19850784 388.5478981 -196.93607819 388.7129837 -197.69599915 388.8830719 C-202.76523355 390 -202.76523355 390 -205 390 C-202.99892117 384.86382227 -200.59007875 379.98879172 -198.125 375.0625 C-197.63233643 374.07725342 -197.13967285 373.09200684 -196.63208008 372.0769043 C-193.44349399 365.74768458 -190.12577108 359.50887045 -186.6875 353.3125 C-180.51742395 342.18173332 -174.7713354 330.84090359 -169 319.5 C-162.97554968 307.66387549 -156.94480181 295.85310961 -150.48876953 284.24487305 C-145.58554424 275.37057793 -140.99264919 266.33749202 -136.375 257.3125 C-135.95827026 256.4982254 -135.54154053 255.68395081 -135.11218262 254.84500122 C-133.48708076 251.66935474 -131.86213163 248.4936302 -130.23751831 245.31773376 C-123.44363595 232.0432585 -116.42035252 218.909774 -109.24829102 205.83618164 C-106.56772824 200.93315712 -103.96292981 196.01574757 -101.5 191 C-98.64044058 185.1775236 -95.56498666 179.49517551 -92.4375 173.8125 C-87.83065989 165.4385476 -83.37583431 156.99685338 -79 148.5 C-74.74253429 140.23602149 -70.41948879 132.0194734 -65.9375 123.875 C-56.90648673 107.45552586 -48.28094229 90.81031284 -40 74 C-39 72 -39 72 -37.66186523 70.30224609 C-35.57822076 67.41569293 -34.00795005 64.33356408 -32.41015625 61.1640625 C-32.06942581 60.49649933 -31.72869537 59.82893616 -31.37763977 59.1411438 C-30.64806123 57.71166378 -29.91999155 56.28141283 -29.19329834 54.85046387 C-22.42295321 41.52610893 -15.46642594 28.32409637 -8.23535156 15.24316406 C-6.3845391 11.88243977 -4.56461641 8.50537115 -2.75 5.125 C-2.20859375 4.11695313 -1.6671875 3.10890625 -1.109375 2.0703125 C-0.56023437 1.04550781 -0.56023437 1.04550781 0 0 Z " fill="#000000" transform="translate(512,288)"/>
<path d="M0 0 C2 1 2 1 2 1 Z " fill="#030504" transform="translate(393,624)"/>
<path d="M0 0 C2 1 2 1 2 1 Z " fill="#040306" transform="translate(449,600)"/>
<path d="M0 0 C2 1 2 1 2 1 Z " fill="#060504" transform="translate(504,576)"/>
<path d="" fill="#6A6B6B" transform="translate(0,0)"/>
<path d="" fill="#2E2E31" transform="translate(0,0)"/>
<path d="" fill="#2A2B2D" transform="translate(0,0)"/>
<path d="" fill="#1E2122" transform="translate(0,0)"/>
<path d="" fill="#121113" transform="translate(0,0)"/>
<path d="" fill="#0E1112" transform="translate(0,0)"/>
<path d="" fill="#0E0F0E" transform="translate(0,0)"/>
<path d="" fill="#0F0E0F" transform="translate(0,0)"/>
<path d="" fill="#0B0C0E" transform="translate(0,0)"/>
<path d="" fill="#131312" transform="translate(0,0)"/>
<path d="" fill="#141314" transform="translate(0,0)"/>
<path d="" fill="#0C0D0C" transform="translate(0,0)"/>
<path d="" fill="#0F0F0F" transform="translate(0,0)"/>
<path d="" fill="#121313" transform="translate(0,0)"/>
<path d="" fill="#0F1210" transform="translate(0,0)"/>
<path d="" fill="#111111" transform="translate(0,0)"/>
<path d="" fill="#040304" transform="translate(0,0)"/>
<path d="" fill="#040706" transform="translate(0,0)"/>
<path d="" fill="#0A070A" transform="translate(0,0)"/>
<path d="" fill="#060606" transform="translate(0,0)"/>
<path d="" fill="#070805" transform="translate(0,0)"/>
<path d="" fill="#050504" transform="translate(0,0)"/>
<path d="" fill="#060605" transform="translate(0,0)"/>
<path d="" fill="#040103" transform="translate(0,0)"/>
<path d="" fill="#12100F" transform="translate(0,0)"/>
<path d="" fill="#050603" transform="translate(0,0)"/>
<path d="" fill="#030402" transform="translate(0,0)"/>
<path d="" fill="#040605" transform="translate(0,0)"/>
<path d="" fill="#060907" transform="translate(0,0)"/>
<path d="" fill="#060807" transform="translate(0,0)"/>
<path d="" fill="#080807" transform="translate(0,0)"/>
<path d="" fill="#0B0B0B" transform="translate(0,0)"/>
<path d="" fill="#090807" transform="translate(0,0)"/>
<path d="" fill="#080706" transform="translate(0,0)"/>
<path d="" fill="#040505" transform="translate(0,0)"/>
<path d="" fill="#09090A" transform="translate(0,0)"/>
<path d="" fill="#0B0B0D" transform="translate(0,0)"/>
<path d="" fill="#0C0C0D" transform="translate(0,0)"/>
<path d="" fill="#0A0908" transform="translate(0,0)"/>
<path d="" fill="#0A0B0D" transform="translate(0,0)"/>
<path d="" fill="#080C0C" transform="translate(0,0)"/>
<path d="" fill="#09070A" transform="translate(0,0)"/>
<path d="" fill="#060708" transform="translate(0,0)"/>
<path d="" fill="#080C0B" transform="translate(0,0)"/>
<path d="" fill="#040605" transform="translate(0,0)"/>
<path d="" fill="#080707" transform="translate(0,0)"/>
<path d="" fill="#0B0C0B" transform="translate(0,0)"/>
<path d="" fill="#070405" transform="translate(0,0)"/>
<path d="" fill="#060706" transform="translate(0,0)"/>
<path d="" fill="#0A0A0B" transform="translate(0,0)"/>
<path d="" fill="#070504" transform="translate(0,0)"/>
<path d="" fill="#080908" transform="translate(0,0)"/>
<path d="" fill="#050505" transform="translate(0,0)"/>
<path d="" fill="#080809" transform="translate(0,0)"/>
<path d="" fill="#080A09" transform="translate(0,0)"/>
<path d="" fill="#040503" transform="translate(0,0)"/>
<path d="" fill="#0D0B0D" transform="translate(0,0)"/>
<path d="" fill="#0C0A0A" transform="translate(0,0)"/>
<path d="" fill="#0F0E0F" transform="translate(0,0)"/>
<path d="" fill="#5B5C5B" transform="translate(0,0)"/>
<path d="" fill="#070708" transform="translate(0,0)"/>
<path d="" fill="#0A0A0C" transform="translate(0,0)"/>
<path d="" fill="#161718" transform="translate(0,0)"/>
<path d="" fill="#121618" transform="translate(0,0)"/>
<path d="" fill="#6C6D6D" transform="translate(0,0)"/>
</svg>
